<svg width="48" height="48" viewBox="0 0 48 48" fill="none" xmlns="http://www.w3.org/2000/svg">
<mask id="mask0_158_737" style="mask-type:luminance" maskUnits="userSpaceOnUse" x="15" y="15" width="18" height="18">
<path d="M33 15H15V33H33V15Z" fill="white"/>
</mask>
<g mask="url(#mask0_158_737)">
<path d="M32.64 24.2046C32.64 23.5664 32.5828 22.9528 32.4764 22.3636H24V25.845H28.8436C28.635 26.97 28.001 27.9232 27.0478 28.5614V30.8196H29.9564C31.6582 29.2528 32.64 26.9454 32.64 24.2046Z" fill="#4285F4"/>
<path d="M24.0001 33C26.4301 33 28.4673 32.1941 29.9564 30.8196L27.0478 28.5614C26.2419 29.1014 25.2109 29.4204 24.0001 29.4204C21.6559 29.4204 19.6719 27.8372 18.9641 25.71H15.9573V28.0418C17.4383 30.9832 20.4819 33 24.0001 33Z" fill="#34A853"/>
<path d="M18.9641 25.71C18.7841 25.17 18.6818 24.5932 18.6818 24C18.6818 23.4068 18.7841 22.83 18.9641 22.29V19.9582H15.9572C15.3478 21.1732 15 22.5478 15 24C15 25.4522 15.3478 26.8268 15.9572 28.0418L18.9641 25.71Z" fill="#FBBC04"/>
<path d="M24.0001 18.5796C25.3214 18.5796 26.5078 19.0336 27.4405 19.9254L30.0219 17.3441C28.4633 15.8918 26.4259 15 24.0001 15C20.4819 15 17.4383 17.0168 15.9573 19.9582L18.9641 22.29C19.6719 20.1628 21.6559 18.5796 24.0001 18.5796Z" fill="#E94235"/>
</g>
</svg>
