<?xml version="1.0" encoding="UTF-8"?>
<svg version="1.1" xmlns="http://www.w3.org/2000/svg" width="72" height="72">
<path d="M0 0 C1.65 0 3.3 0 5 0 C6.00674459 3.26879616 7.00422489 6.5403471 8 9.8125 C8.28617188 10.74126953 8.57234375 11.67003906 8.8671875 12.62695312 C9.13789062 13.51962891 9.40859375 14.41230469 9.6875 15.33203125 C9.93886719 16.15421143 10.19023438 16.9763916 10.44921875 17.82348633 C11 20 11 20 11 23 C12.01126953 23.16822266 12.01126953 23.16822266 13.04296875 23.33984375 C16.57874672 24.12920501 19.91943566 25.31499849 23.3125 26.5625 C23.95767578 26.79646484 24.60285156 27.03042969 25.26757812 27.27148438 C26.84621219 27.84447007 28.42327026 28.42179464 30 29 C30 30.65 30 32.3 30 34 C28.78183594 34.23847656 27.56367187 34.47695313 26.30859375 34.72265625 C16.99846398 37.03648161 16.99846398 37.03648161 10.46044922 43.58886719 C7.79848598 50.15868237 6.2428954 57.03485501 5 64 C3.35 64 1.7 64 0 64 C-0.11778809 63.33991943 -0.23557617 62.67983887 -0.35693359 61.99975586 C-2.35334408 49.44782921 -2.35334408 49.44782921 -9.08203125 39.28808594 C-12.98681036 37.24341926 -16.94141574 36.13290169 -21.2109375 35.11328125 C-22.46132813 34.74589844 -23.71171875 34.37851562 -25 34 C-25.73681641 31.93041992 -25.73681641 31.93041992 -26 30 C-24.82244141 29.51080078 -24.82244141 29.51080078 -23.62109375 29.01171875 C-22.57050781 28.57472656 -21.51992188 28.13773438 -20.4375 27.6875 C-19.40496094 27.25824219 -18.37242188 26.82898438 -17.30859375 26.38671875 C-16.21675781 25.92910156 -15.12492187 25.47148437 -14 25 C-12.7934375 24.6803125 -11.586875 24.360625 -10.34375 24.03125 C-5.17588345 20.89189181 -4.57658239 16.44687216 -3.0625 10.8125 C-2.76021484 9.77673828 -2.45792969 8.74097656 -2.14648438 7.67382812 C-1.40562393 5.12197547 -0.69150365 2.56558336 0 0 Z " fill="#FFAC33" transform="translate(40,4)"/>
<path d="M0 0 C1.65 0 3.3 0 5 0 C5.226875 1.11375 5.45375 2.2275 5.6875 3.375 C6.60623658 7.16038373 6.60623658 7.16038373 9.625 8.4375 C10.40875 8.623125 11.1925 8.80875 12 9 C12 10.65 12 12.3 12 14 C11.21625 14.165 10.4325 14.33 9.625 14.5 C6.8906529 15.70396899 6.8906529 15.70396899 6.22265625 17.9140625 C5.73586948 19.92516699 5.36146745 21.962638 5 24 C3.35 24 1.7 24 0 24 C-0.391875 22.741875 -0.78375 21.48375 -1.1875 20.1875 C-2.36824996 16.98017438 -2.83778145 16.12072078 -5.6875 14 C-6.8321875 13.505 -6.8321875 13.505 -8 13 C-7.67 11.68 -7.34 10.36 -7 9 C-5.35 8.67 -3.7 8.34 -2 8 C-1.34 5.36 -0.68 2.72 0 0 Z " fill="#FFCC4D" transform="translate(18,46)"/>
<path d="M0 0 C1.8125 0.1875 1.8125 0.1875 4 1 C5.0064275 2.66279327 6.00585407 4.32983484 7 6 C9.56610666 7.80796103 9.56610666 7.80796103 12 9 C11.8125 10.875 11.8125 10.875 11 13 C10.195625 13.309375 9.39125 13.61875 8.5625 13.9375 C5.75492583 14.77381806 5.75492583 14.77381806 4.6875 17.625 C4.460625 18.40875 4.23375 19.1925 4 20 C2.35 20 0.7 20 -1 20 C-1.33 18.02 -1.66 16.04 -2 14 C-4.97 13.505 -4.97 13.505 -8 13 C-8 11.35 -8 9.7 -8 8 C-7.236875 7.79375 -6.47375 7.5875 -5.6875 7.375 C-2.17770897 5.57929296 -1.47400219 3.56863688 0 0 Z " fill="#FFCC4D" transform="translate(10,4)"/>
</svg>
