<svg width="24" height="24" viewBox="0 0 24 24" fill="none" xmlns="http://www.w3.org/2000/svg">
<mask id="path-1-inside-1_485_2858" fill="white">
<path d="M4 5C4 4.44772 4.44772 4 5 4H19C19.5523 4 20 4.44772 20 5V20C20 20.5523 19.5523 21 19 21H5C4.44772 21 4 20.5523 4 20V5Z"/>
</mask>
<path d="M4 4H20H4ZM21.5 20C21.5 21.3807 20.3807 22.5 19 22.5H5C3.61929 22.5 2.5 21.3807 2.5 20L5.5 19.5H18.5L21.5 20ZM5 22.5C3.61929 22.5 2.5 21.3807 2.5 20V6.5C2.5 5.11929 3.61929 4 5 4H5.5C5.5 4 5.5 4.44772 5.5 5V19.5L5 22.5ZM19 4C20.3807 4 21.5 5.11929 21.5 6.5V20C21.5 21.3807 20.3807 22.5 19 22.5L18.5 19.5V5C18.5 4.44772 18.5 4 18.5 4H19Z" fill="#82879B" mask="url(#path-1-inside-1_485_2858)"/>
<mask id="path-3-inside-2_485_2858" fill="white">
<path d="M7 3C7 2.44772 7.44772 2 8 2H16C16.5523 2 17 2.44772 17 3V7H7V3Z"/>
</mask>
<path d="M7 3C7 2.44772 7.44772 2 8 2H16C16.5523 2 17 2.44772 17 3V7H7V3Z" stroke="#82879B" stroke-width="3" mask="url(#path-3-inside-2_485_2858)"/>
<line x1="5" y1="4.75" x2="7" y2="4.75" stroke="#82879B" stroke-width="1.5"/>
<line x1="17" y1="4.75" x2="19" y2="4.75" stroke="#82879B" stroke-width="1.5"/>
<path d="M9 11H15" stroke="#82879B" stroke-width="1.5" stroke-linecap="round"/>
<path d="M9 15H15" stroke="#82879B" stroke-width="1.5" stroke-linecap="round"/>
</svg>
