<?xml version="1.0" standalone="no"?>
<!DOCTYPE svg PUBLIC "-//W3C//DTD SVG 20010904//EN"
 "http://www.w3.org/TR/2001/REC-SVG-20010904/DTD/svg10.dtd">
<svg version="1.0" xmlns="http://www.w3.org/2000/svg"
 width="840.000000pt" height="859.000000pt" viewBox="0 0 840.000000 859.000000"
 preserveAspectRatio="xMidYMid meet">

<g transform="translate(0.000000,859.000000) scale(0.100000,-0.100000)"
fill="#82879B" stroke="none">
<path d="M3884 6630 c-34 -13 -62 -57 -85 -129 -24 -78 -98 -443 -209 -1036
-45 -236 -103 -545 -130 -685 -27 -140 -65 -340 -85 -445 -57 -303 -67 -345
-81 -345 -7 0 -104 97 -216 216 -212 226 -304 309 -349 319 -34 8 -103 -10
-125 -33 -26 -25 -167 -244 -284 -439 l-103 -173 -1033 0 -1034 0 -40 -36
c-62 -57 -83 -97 -76 -147 8 -52 36 -100 73 -124 26 -17 84 -18 1048 -21 602
-2 1063 0 1125 6 l105 10 36 42 c20 23 93 133 162 244 70 112 134 209 143 217
14 11 36 -8 177 -157 239 -252 398 -409 437 -433 62 -37 131 -23 183 38 36 43
79 238 227 1031 76 408 149 771 159 788 7 12 20 -71 57 -368 8 -63 23 -185 34
-270 11 -85 45 -357 75 -605 177 -1442 242 -1940 265 -2025 24 -88 126 -133
216 -95 60 25 77 72 445 1220 61 193 116 355 121 362 7 8 79 13 245 15 l235 3
61 65 c34 36 121 137 193 225 72 88 138 166 147 173 17 15 3 30 225 -248 76
-96 156 -190 176 -208 l38 -33 906 3 c1008 3 959 0 1002 70 48 77 39 129 -34
204 l-52 54 -846 0 -846 0 -39 48 c-22 26 -82 101 -133 167 -51 66 -138 175
-194 243 -111 135 -135 150 -219 138 -57 -9 -90 -43 -346 -359 l-185 -227
-170 0 c-258 -1 -361 -12 -391 -40 -30 -28 -83 -171 -210 -568 -98 -308 -126
-385 -131 -367 -4 14 -44 332 -114 900 -94 764 -178 1441 -205 1655 -13 107
-34 267 -45 355 -11 88 -29 232 -40 320 -53 418 -59 441 -131 477 -36 19 -100
23 -135 8z"/>
</g>
</svg>
