<svg width="24" height="24" viewBox="0 0 24 24" xmlns="http://www.w3.org/2000/svg"><path d="M8.275 21c7.556 0 11.692-6.542 11.692-12.213 0-.184 0-.368-.012-.552A8.398 8.398 0 0 0 22 6.013a7.73 7.73 0 0 1-2.362.675 4.29 4.29 0 0 0 1.81-2.369c-.8.491-1.669.847-2.609 1.043C18.087 4.528 17.018 4 15.843 4c-2.268 0-4.113 1.927-4.113 4.296 0 .331.035.663.105.982-3.407-.184-6.439-1.89-8.46-4.492a4.454 4.454 0 0 0-.552 2.16c0 1.485.728 2.798 1.833 3.572a4.007 4.007 0 0 1-1.857-.54v.049c0 2.074 1.422 3.817 3.29 4.21a4.056 4.056 0 0 1-1.857.074c.53 1.706 2.045 2.945 3.843 2.982-1.41 1.154-3.173 1.841-5.1 1.841A8.45 8.45 0 0 1 2 19.073 11.15 11.15 0 0 0 8.275 21Z" fill="#82879B"/></svg>